<mxfile host="app.diagrams.net" modified="2021-01-23T08:15:08.504Z" agent="5.0 (Windows)" etag="XQeA7H1cLaz61zQvAMes" version="14.2.7" type="github">
  <diagram id="KgRua4jeA5_Cm-heyDki" name="Page-1">
    <mxGraphModel dx="764" dy="835" grid="1" gridSize="10" guides="1" tooltips="1" connect="1" arrows="1" fold="1" page="1" pageScale="1" pageWidth="827" pageHeight="1169" math="0" shadow="0">
      <root>
        <mxCell id="0" />
        <mxCell id="1" parent="0" />
        <mxCell id="0Ee_PUYVlpRAts2M133V-1" value="User" style="html=1;" vertex="1" parent="1">
          <mxGeometry x="490" y="400" width="90" height="30" as="geometry" />
        </mxCell>
        <mxCell id="0Ee_PUYVlpRAts2M133V-2" value="Zutaten" style="html=1;" vertex="1" parent="1">
          <mxGeometry x="125" y="670" width="90" height="40" as="geometry" />
        </mxCell>
        <mxCell id="0Ee_PUYVlpRAts2M133V-3" value="Rezept" style="html=1;" vertex="1" parent="1">
          <mxGeometry x="130" y="440" width="80" height="30" as="geometry" />
        </mxCell>
        <mxCell id="0Ee_PUYVlpRAts2M133V-4" value="userid" style="ellipse;whiteSpace=wrap;html=1;" vertex="1" parent="1">
          <mxGeometry x="60" y="402.5" width="70" height="25" as="geometry" />
        </mxCell>
        <mxCell id="0Ee_PUYVlpRAts2M133V-5" value="&lt;div&gt;rezeptId&lt;/div&gt;" style="ellipse;whiteSpace=wrap;html=1;" vertex="1" parent="1">
          <mxGeometry x="30" y="427.5" width="65" height="30" as="geometry" />
        </mxCell>
        <mxCell id="0Ee_PUYVlpRAts2M133V-6" value="title" style="ellipse;whiteSpace=wrap;html=1;" vertex="1" parent="1">
          <mxGeometry x="95" y="370" width="70" height="30" as="geometry" />
        </mxCell>
        <mxCell id="0Ee_PUYVlpRAts2M133V-7" value="diat" style="ellipse;whiteSpace=wrap;html=1;" vertex="1" parent="1">
          <mxGeometry x="150" y="350" width="70" height="30" as="geometry" />
        </mxCell>
        <mxCell id="0Ee_PUYVlpRAts2M133V-8" value="schritte" style="ellipse;whiteSpace=wrap;html=1;" vertex="1" parent="1">
          <mxGeometry x="200" y="372.5" width="80" height="30" as="geometry" />
        </mxCell>
        <mxCell id="0Ee_PUYVlpRAts2M133V-9" value="Portionen" style="ellipse;whiteSpace=wrap;html=1;" vertex="1" parent="1">
          <mxGeometry x="220" y="410" width="90" height="30" as="geometry" />
        </mxCell>
        <mxCell id="0Ee_PUYVlpRAts2M133V-10" value="rate" style="ellipse;whiteSpace=wrap;html=1;" vertex="1" parent="1">
          <mxGeometry x="30" y="470" width="60" height="20" as="geometry" />
        </mxCell>
        <mxCell id="0Ee_PUYVlpRAts2M133V-14" value="" style="endArrow=none;html=1;" edge="1" parent="1" source="0Ee_PUYVlpRAts2M133V-3" target="0Ee_PUYVlpRAts2M133V-7">
          <mxGeometry width="50" height="50" relative="1" as="geometry">
            <mxPoint x="370" y="450" as="sourcePoint" />
            <mxPoint x="420" y="400" as="targetPoint" />
          </mxGeometry>
        </mxCell>
        <mxCell id="0Ee_PUYVlpRAts2M133V-15" value="" style="endArrow=none;html=1;" edge="1" parent="1" source="0Ee_PUYVlpRAts2M133V-3" target="0Ee_PUYVlpRAts2M133V-6">
          <mxGeometry width="50" height="50" relative="1" as="geometry">
            <mxPoint x="320" y="452.5" as="sourcePoint" />
            <mxPoint x="370" y="402.5" as="targetPoint" />
          </mxGeometry>
        </mxCell>
        <mxCell id="0Ee_PUYVlpRAts2M133V-16" value="" style="endArrow=none;html=1;" edge="1" parent="1" source="0Ee_PUYVlpRAts2M133V-3" target="0Ee_PUYVlpRAts2M133V-4">
          <mxGeometry width="50" height="50" relative="1" as="geometry">
            <mxPoint x="370" y="450" as="sourcePoint" />
            <mxPoint x="420" y="400" as="targetPoint" />
          </mxGeometry>
        </mxCell>
        <mxCell id="0Ee_PUYVlpRAts2M133V-17" value="" style="endArrow=none;html=1;entryX=1;entryY=1;entryDx=0;entryDy=0;" edge="1" parent="1" source="0Ee_PUYVlpRAts2M133V-3" target="0Ee_PUYVlpRAts2M133V-5">
          <mxGeometry width="50" height="50" relative="1" as="geometry">
            <mxPoint x="340" y="470" as="sourcePoint" />
            <mxPoint x="390" y="420" as="targetPoint" />
          </mxGeometry>
        </mxCell>
        <mxCell id="0Ee_PUYVlpRAts2M133V-18" value="" style="endArrow=none;html=1;" edge="1" parent="1" source="0Ee_PUYVlpRAts2M133V-3" target="0Ee_PUYVlpRAts2M133V-10">
          <mxGeometry width="50" height="50" relative="1" as="geometry">
            <mxPoint x="370" y="450" as="sourcePoint" />
            <mxPoint x="420" y="400" as="targetPoint" />
          </mxGeometry>
        </mxCell>
        <mxCell id="0Ee_PUYVlpRAts2M133V-19" value="" style="endArrow=none;html=1;" edge="1" parent="1" source="0Ee_PUYVlpRAts2M133V-3" target="0Ee_PUYVlpRAts2M133V-9">
          <mxGeometry width="50" height="50" relative="1" as="geometry">
            <mxPoint x="370" y="450" as="sourcePoint" />
            <mxPoint x="420" y="400" as="targetPoint" />
          </mxGeometry>
        </mxCell>
        <mxCell id="0Ee_PUYVlpRAts2M133V-20" value="" style="endArrow=none;html=1;" edge="1" parent="1" source="0Ee_PUYVlpRAts2M133V-3" target="0Ee_PUYVlpRAts2M133V-8">
          <mxGeometry width="50" height="50" relative="1" as="geometry">
            <mxPoint x="370" y="450" as="sourcePoint" />
            <mxPoint x="230" y="388" as="targetPoint" />
          </mxGeometry>
        </mxCell>
        <mxCell id="0Ee_PUYVlpRAts2M133V-21" value="hat" style="rhombus;whiteSpace=wrap;html=1;" vertex="1" parent="1">
          <mxGeometry x="135" y="520" width="70" height="60" as="geometry" />
        </mxCell>
        <mxCell id="0Ee_PUYVlpRAts2M133V-23" value="" style="endArrow=none;html=1;exitX=1;exitY=0.5;exitDx=0;exitDy=0;" edge="1" parent="1" source="0Ee_PUYVlpRAts2M133V-28" target="0Ee_PUYVlpRAts2M133V-1">
          <mxGeometry width="50" height="50" relative="1" as="geometry">
            <mxPoint x="420" y="660" as="sourcePoint" />
            <mxPoint x="470" y="610" as="targetPoint" />
            <Array as="points">
              <mxPoint x="430" y="415" />
            </Array>
          </mxGeometry>
        </mxCell>
        <mxCell id="0Ee_PUYVlpRAts2M133V-24" value="" style="endArrow=none;html=1;entryX=0;entryY=0.5;entryDx=0;entryDy=0;" edge="1" parent="1" target="0Ee_PUYVlpRAts2M133V-28">
          <mxGeometry width="50" height="50" relative="1" as="geometry">
            <mxPoint x="210" y="452.5" as="sourcePoint" />
            <mxPoint x="370" y="450" as="targetPoint" />
          </mxGeometry>
        </mxCell>
        <mxCell id="0Ee_PUYVlpRAts2M133V-25" value="" style="endArrow=none;html=1;exitX=0.5;exitY=1;exitDx=0;exitDy=0;" edge="1" parent="1" source="0Ee_PUYVlpRAts2M133V-21" target="0Ee_PUYVlpRAts2M133V-2">
          <mxGeometry width="50" height="50" relative="1" as="geometry">
            <mxPoint x="370" y="450" as="sourcePoint" />
            <mxPoint x="420" y="400" as="targetPoint" />
          </mxGeometry>
        </mxCell>
        <mxCell id="0Ee_PUYVlpRAts2M133V-26" value="" style="endArrow=none;html=1;" edge="1" parent="1" source="0Ee_PUYVlpRAts2M133V-3" target="0Ee_PUYVlpRAts2M133V-21">
          <mxGeometry width="50" height="50" relative="1" as="geometry">
            <mxPoint x="370" y="450" as="sourcePoint" />
            <mxPoint x="420" y="400" as="targetPoint" />
          </mxGeometry>
        </mxCell>
        <mxCell id="0Ee_PUYVlpRAts2M133V-28" value="erstellt" style="rhombus;whiteSpace=wrap;html=1;" vertex="1" parent="1">
          <mxGeometry x="360" y="420" width="70" height="65" as="geometry" />
        </mxCell>
        <mxCell id="0Ee_PUYVlpRAts2M133V-29" value="macht" style="rhombus;whiteSpace=wrap;html=1;" vertex="1" parent="1">
          <mxGeometry x="500" y="485" width="70" height="75" as="geometry" />
        </mxCell>
        <mxCell id="0Ee_PUYVlpRAts2M133V-30" value="" style="endArrow=none;html=1;entryX=0.5;entryY=1;entryDx=0;entryDy=0;" edge="1" parent="1" source="0Ee_PUYVlpRAts2M133V-1" target="0Ee_PUYVlpRAts2M133V-42">
          <mxGeometry width="50" height="50" relative="1" as="geometry">
            <mxPoint x="370" y="450" as="sourcePoint" />
            <mxPoint x="420" y="400" as="targetPoint" />
          </mxGeometry>
        </mxCell>
        <mxCell id="0Ee_PUYVlpRAts2M133V-31" value="" style="endArrow=none;html=1;" edge="1" parent="1" source="0Ee_PUYVlpRAts2M133V-38" target="0Ee_PUYVlpRAts2M133V-2">
          <mxGeometry width="50" height="50" relative="1" as="geometry">
            <mxPoint x="250" y="710" as="sourcePoint" />
            <mxPoint x="300" y="660" as="targetPoint" />
          </mxGeometry>
        </mxCell>
        <mxCell id="0Ee_PUYVlpRAts2M133V-32" value="" style="endArrow=none;html=1;" edge="1" parent="1" source="0Ee_PUYVlpRAts2M133V-36" target="0Ee_PUYVlpRAts2M133V-2">
          <mxGeometry width="50" height="50" relative="1" as="geometry">
            <mxPoint x="235" y="700" as="sourcePoint" />
            <mxPoint x="285" y="650" as="targetPoint" />
          </mxGeometry>
        </mxCell>
        <mxCell id="0Ee_PUYVlpRAts2M133V-33" value="" style="endArrow=none;html=1;" edge="1" parent="1" source="0Ee_PUYVlpRAts2M133V-37" target="0Ee_PUYVlpRAts2M133V-2">
          <mxGeometry width="50" height="50" relative="1" as="geometry">
            <mxPoint x="125" y="770" as="sourcePoint" />
            <mxPoint x="175" y="720" as="targetPoint" />
          </mxGeometry>
        </mxCell>
        <mxCell id="0Ee_PUYVlpRAts2M133V-34" value="" style="endArrow=none;html=1;exitX=0.5;exitY=0;exitDx=0;exitDy=0;" edge="1" parent="1" source="0Ee_PUYVlpRAts2M133V-29" target="0Ee_PUYVlpRAts2M133V-1">
          <mxGeometry width="50" height="50" relative="1" as="geometry">
            <mxPoint x="525" y="562" as="sourcePoint" />
            <mxPoint x="470" y="490" as="targetPoint" />
            <Array as="points" />
          </mxGeometry>
        </mxCell>
        <mxCell id="0Ee_PUYVlpRAts2M133V-36" value="zutatid" style="ellipse;whiteSpace=wrap;html=1;" vertex="1" parent="1">
          <mxGeometry x="110" y="770" width="70" height="40" as="geometry" />
        </mxCell>
        <mxCell id="0Ee_PUYVlpRAts2M133V-37" value="name" style="ellipse;whiteSpace=wrap;html=1;" vertex="1" parent="1">
          <mxGeometry x="30" y="740" width="90" height="40" as="geometry" />
        </mxCell>
        <mxCell id="0Ee_PUYVlpRAts2M133V-38" value="menge" style="ellipse;whiteSpace=wrap;html=1;" vertex="1" parent="1">
          <mxGeometry x="205" y="740" width="80" height="40" as="geometry" />
        </mxCell>
        <mxCell id="0Ee_PUYVlpRAts2M133V-39" value="password" style="ellipse;whiteSpace=wrap;html=1;" vertex="1" parent="1">
          <mxGeometry x="600" y="280" width="80" height="40" as="geometry" />
        </mxCell>
        <mxCell id="0Ee_PUYVlpRAts2M133V-40" value="userName" style="ellipse;whiteSpace=wrap;html=1;" vertex="1" parent="1">
          <mxGeometry x="550" y="250" width="80" height="40" as="geometry" />
        </mxCell>
        <mxCell id="0Ee_PUYVlpRAts2M133V-41" value="name" style="ellipse;whiteSpace=wrap;html=1;" vertex="1" parent="1">
          <mxGeometry x="470" y="260" width="80" height="40" as="geometry" />
        </mxCell>
        <mxCell id="0Ee_PUYVlpRAts2M133V-42" value="userid" style="ellipse;whiteSpace=wrap;html=1;" vertex="1" parent="1">
          <mxGeometry x="410" y="290" width="80" height="40" as="geometry" />
        </mxCell>
        <mxCell id="0Ee_PUYVlpRAts2M133V-44" value="admin" style="ellipse;whiteSpace=wrap;html=1;" vertex="1" parent="1">
          <mxGeometry x="630" y="320" width="70" height="40" as="geometry" />
        </mxCell>
        <mxCell id="0Ee_PUYVlpRAts2M133V-45" value="" style="endArrow=none;html=1;entryX=0;entryY=1;entryDx=0;entryDy=0;" edge="1" parent="1" source="0Ee_PUYVlpRAts2M133V-1" target="0Ee_PUYVlpRAts2M133V-44">
          <mxGeometry width="50" height="50" relative="1" as="geometry">
            <mxPoint x="350" y="500" as="sourcePoint" />
            <mxPoint x="400" y="450" as="targetPoint" />
          </mxGeometry>
        </mxCell>
        <mxCell id="0Ee_PUYVlpRAts2M133V-46" value="" style="endArrow=none;html=1;" edge="1" parent="1" source="0Ee_PUYVlpRAts2M133V-1" target="0Ee_PUYVlpRAts2M133V-39">
          <mxGeometry width="50" height="50" relative="1" as="geometry">
            <mxPoint x="350" y="500" as="sourcePoint" />
            <mxPoint x="400" y="450" as="targetPoint" />
          </mxGeometry>
        </mxCell>
        <mxCell id="0Ee_PUYVlpRAts2M133V-47" value="" style="endArrow=none;html=1;" edge="1" parent="1" source="0Ee_PUYVlpRAts2M133V-1" target="0Ee_PUYVlpRAts2M133V-40">
          <mxGeometry width="50" height="50" relative="1" as="geometry">
            <mxPoint x="350" y="500" as="sourcePoint" />
            <mxPoint x="400" y="450" as="targetPoint" />
          </mxGeometry>
        </mxCell>
        <mxCell id="0Ee_PUYVlpRAts2M133V-48" value="" style="endArrow=none;html=1;" edge="1" parent="1" source="0Ee_PUYVlpRAts2M133V-1" target="0Ee_PUYVlpRAts2M133V-41">
          <mxGeometry width="50" height="50" relative="1" as="geometry">
            <mxPoint x="350" y="500" as="sourcePoint" />
            <mxPoint x="400" y="450" as="targetPoint" />
          </mxGeometry>
        </mxCell>
        <mxCell id="0Ee_PUYVlpRAts2M133V-49" value="bewertung" style="rounded=0;whiteSpace=wrap;html=1;" vertex="1" parent="1">
          <mxGeometry x="490" y="610" width="85" height="40" as="geometry" />
        </mxCell>
        <mxCell id="0Ee_PUYVlpRAts2M133V-50" value="" style="endArrow=none;html=1;entryX=0.5;entryY=1;entryDx=0;entryDy=0;" edge="1" parent="1" source="0Ee_PUYVlpRAts2M133V-49" target="0Ee_PUYVlpRAts2M133V-29">
          <mxGeometry width="50" height="50" relative="1" as="geometry">
            <mxPoint x="350" y="500" as="sourcePoint" />
            <mxPoint x="400" y="450" as="targetPoint" />
          </mxGeometry>
        </mxCell>
        <mxCell id="0Ee_PUYVlpRAts2M133V-51" value="" style="endArrow=none;html=1;exitX=1;exitY=0.5;exitDx=0;exitDy=0;entryX=0;entryY=0.5;entryDx=0;entryDy=0;" edge="1" parent="1" source="0Ee_PUYVlpRAts2M133V-21" target="0Ee_PUYVlpRAts2M133V-49">
          <mxGeometry width="50" height="50" relative="1" as="geometry">
            <mxPoint x="350" y="500" as="sourcePoint" />
            <mxPoint x="400" y="450" as="targetPoint" />
            <Array as="points">
              <mxPoint x="360" y="550" />
              <mxPoint x="360" y="630" />
            </Array>
          </mxGeometry>
        </mxCell>
        <mxCell id="0Ee_PUYVlpRAts2M133V-53" value="rezeptid" style="ellipse;whiteSpace=wrap;html=1;" vertex="1" parent="1">
          <mxGeometry x="414" y="670" width="86" height="40" as="geometry" />
        </mxCell>
        <mxCell id="0Ee_PUYVlpRAts2M133V-54" value="userid" style="ellipse;whiteSpace=wrap;html=1;" vertex="1" parent="1">
          <mxGeometry x="490" y="710" width="80" height="40" as="geometry" />
        </mxCell>
        <mxCell id="0Ee_PUYVlpRAts2M133V-55" value="bewertung" style="ellipse;whiteSpace=wrap;html=1;" vertex="1" parent="1">
          <mxGeometry x="580" y="690" width="80" height="40" as="geometry" />
        </mxCell>
        <mxCell id="0Ee_PUYVlpRAts2M133V-56" value="" style="endArrow=none;html=1;" edge="1" parent="1" source="0Ee_PUYVlpRAts2M133V-55" target="0Ee_PUYVlpRAts2M133V-49">
          <mxGeometry width="50" height="50" relative="1" as="geometry">
            <mxPoint x="350" y="500" as="sourcePoint" />
            <mxPoint x="400" y="450" as="targetPoint" />
          </mxGeometry>
        </mxCell>
        <mxCell id="0Ee_PUYVlpRAts2M133V-57" value="" style="endArrow=none;html=1;" edge="1" parent="1" source="0Ee_PUYVlpRAts2M133V-54" target="0Ee_PUYVlpRAts2M133V-49">
          <mxGeometry width="50" height="50" relative="1" as="geometry">
            <mxPoint x="350" y="500" as="sourcePoint" />
            <mxPoint x="400" y="450" as="targetPoint" />
          </mxGeometry>
        </mxCell>
        <mxCell id="0Ee_PUYVlpRAts2M133V-58" value="" style="endArrow=none;html=1;" edge="1" parent="1" source="0Ee_PUYVlpRAts2M133V-49" target="0Ee_PUYVlpRAts2M133V-53">
          <mxGeometry width="50" height="50" relative="1" as="geometry">
            <mxPoint x="350" y="500" as="sourcePoint" />
            <mxPoint x="400" y="450" as="targetPoint" />
          </mxGeometry>
        </mxCell>
        <mxCell id="0Ee_PUYVlpRAts2M133V-60" value="1" style="text;html=1;align=center;verticalAlign=middle;resizable=0;points=[];autosize=1;" vertex="1" parent="1">
          <mxGeometry x="540" y="430" width="20" height="20" as="geometry" />
        </mxCell>
        <mxCell id="0Ee_PUYVlpRAts2M133V-62" value="1" style="text;html=1;align=center;verticalAlign=middle;resizable=0;points=[];autosize=1;" vertex="1" parent="1">
          <mxGeometry x="145" y="480" width="20" height="20" as="geometry" />
        </mxCell>
        <mxCell id="0Ee_PUYVlpRAts2M133V-64" value="1" style="text;html=1;align=center;verticalAlign=middle;resizable=0;points=[];autosize=1;" vertex="1" parent="1">
          <mxGeometry x="470" y="420" width="20" height="20" as="geometry" />
        </mxCell>
        <mxCell id="0Ee_PUYVlpRAts2M133V-65" value="(0,* )" style="text;html=1;align=center;verticalAlign=middle;resizable=0;points=[];autosize=1;" vertex="1" parent="1">
          <mxGeometry x="210" y="450" width="40" height="20" as="geometry" />
        </mxCell>
        <mxCell id="0Ee_PUYVlpRAts2M133V-66" value="(0,* )" style="text;html=1;align=center;verticalAlign=middle;resizable=0;points=[];autosize=1;" vertex="1" parent="1">
          <mxGeometry x="450" y="605" width="40" height="20" as="geometry" />
        </mxCell>
        <mxCell id="0Ee_PUYVlpRAts2M133V-67" value="(1,*)" style="text;html=1;align=center;verticalAlign=middle;resizable=0;points=[];autosize=1;" vertex="1" parent="1">
          <mxGeometry x="165" y="650" width="40" height="20" as="geometry" />
        </mxCell>
        <mxCell id="0Ee_PUYVlpRAts2M133V-69" value="(0,* )" style="text;html=1;align=center;verticalAlign=middle;resizable=0;points=[];autosize=1;" vertex="1" parent="1">
          <mxGeometry x="540" y="585" width="40" height="20" as="geometry" />
        </mxCell>
      </root>
    </mxGraphModel>
  </diagram>
</mxfile>
